<svg width="30" height="30" viewBox="0 0 30 30" fill="none" xmlns="http://www.w3.org/2000/svg">
<path d="M26.3623 8.72502C25.2998 7.55002 23.5248 6.96252 20.9498 6.96252H20.6498V6.91252C20.6498 4.81252 20.6498 2.21252 15.9498 2.21252H14.0498C9.3498 2.21252 9.3498 4.82502 9.3498 6.91252V6.97502H9.0498C6.4623 6.97502 4.6998 7.56252 3.6373 8.73752C2.3998 10.1125 2.4373 11.9625 2.5623 13.225L2.5748 13.3125L2.6998 14.625C2.7123 14.6375 2.7373 14.6625 2.7623 14.675C3.1748 14.95 3.5998 15.225 4.0498 15.475C4.2248 15.5875 4.4123 15.6875 4.5998 15.7875C6.7373 16.9625 9.0873 17.75 11.4748 18.1375C11.5873 19.3125 12.0998 20.6875 14.8373 20.6875C17.5748 20.6875 18.1123 19.325 18.1998 18.1125C20.7498 17.7 23.2123 16.8125 25.4373 15.5125C25.5123 15.475 25.5623 15.4375 25.6248 15.4C26.1998 15.075 26.7373 14.725 27.2623 14.3375C27.2873 14.325 27.3123 14.3 27.3248 14.275L27.3748 13.825L27.4373 13.2375C27.4498 13.1625 27.4498 13.1 27.4623 13.0125C27.5623 11.75 27.5373 10.025 26.3623 8.72502ZM16.3623 17.2875C16.3623 18.6125 16.3623 18.8125 14.8248 18.8125C13.2873 18.8125 13.2873 18.575 13.2873 17.3V15.725H16.3623V17.2875ZM11.1373 6.96252V6.91252C11.1373 4.78752 11.1373 4.00002 14.0498 4.00002H15.9498C18.8623 4.00002 18.8623 4.80002 18.8623 6.91252V6.97502H11.1373V6.96252Z" fill="white"/>
<path opacity="0.4" d="M25.6252 15.375C25.5627 15.4125 25.5002 15.45 25.4377 15.4875C23.2127 16.7875 20.7502 17.6625 18.2002 18.0875C18.1002 19.2875 17.5752 20.6625 14.8377 20.6625C12.1002 20.6625 11.5752 19.3 11.4752 18.1125C9.0877 17.7375 6.7377 16.95 4.6002 15.7625C4.4127 15.6625 4.2252 15.5625 4.0502 15.45C3.6002 15.2 3.1752 14.925 2.7627 14.65C2.7377 14.6375 2.7127 14.6125 2.7002 14.6L3.4627 22.7375C3.7252 25.225 4.7502 27.7875 10.2502 27.7875H19.7752C25.2752 27.7875 26.3002 25.225 26.5627 22.725L27.3502 14.25C27.3377 14.275 27.3127 14.3 27.2877 14.3125C26.7502 14.7 26.2002 15.0625 25.6252 15.375Z" fill="white"/>
</svg>
