<svg width="43" height="43" viewBox="0 0 43 43" fill="none" xmlns="http://www.w3.org/2000/svg">
<path d="M10.7506 17.6915C6.3892 19.0614 3.22559 23.1359 3.22559 27.9494C3.22559 33.8865 8.03852 38.6994 13.9756 38.6994C16.9828 38.6994 19.7016 37.4646 21.6526 35.4744C23.5535 33.5354 24.7256 30.8793 24.7256 27.9494M32.2506 17.6915C36.6124 19.0611 39.7765 23.1359 39.7765 27.9497C39.7765 33.8867 34.9635 38.6997 29.0265 38.6997C26.606 38.6997 24.3724 37.8997 22.5756 36.5498M32.2506 15.0492C32.2506 20.9862 27.4376 25.7992 21.5006 25.7992C15.5635 25.7992 10.7506 20.9862 10.7506 15.0492C10.7506 9.11213 15.5635 4.29919 21.5006 4.29919C27.4376 4.29919 32.2506 9.11213 32.2506 15.0492Z" stroke="white" stroke-width="3" stroke-linecap="round" stroke-linejoin="round"/>
</svg>
