<svg width="43" height="43" viewBox="0 0 43 43" fill="none" xmlns="http://www.w3.org/2000/svg">
<path d="M11.18 21.5C11.18 23.3999 9.63991 24.94 7.74005 24.94C5.84019 24.94 4.30005 23.3999 4.30005 21.5C4.30005 19.6002 5.84019 18.06 7.74005 18.06C9.63991 18.06 11.18 19.6002 11.18 21.5ZM11.18 21.5H31.82M31.82 21.5C31.82 23.3999 33.3602 24.94 35.26 24.94C37.1599 24.94 38.7 23.3999 38.7 21.5C38.7 19.6002 37.1599 18.06 35.26 18.06C33.3602 18.06 31.82 19.6002 31.82 21.5ZM31.82 7.74005C31.82 9.63991 33.3602 11.18 35.26 11.18C37.1599 11.18 38.7 9.63991 38.7 7.74005C38.7 5.84019 37.1599 4.30005 35.26 4.30005C33.3602 4.30005 31.82 5.84019 31.82 7.74005ZM31.82 7.74005H21.93C20.9801 7.74005 20.21 8.51012 20.21 9.46005V33.54C20.21 34.49 20.9801 35.26 21.93 35.26H31.82M31.82 35.26C31.82 37.1599 33.3602 38.7 35.26 38.7C37.1599 38.7 38.7 37.1599 38.7 35.26C38.7 33.3602 37.1599 31.82 35.26 31.82C33.3602 31.82 31.82 33.3602 31.82 35.26Z" stroke="white" stroke-width="3" stroke-linecap="round"/>
</svg>
