<svg width="30" height="30" viewBox="0 0 30 30" fill="none" xmlns="http://www.w3.org/2000/svg">
<path opacity="0.4" d="M22.9749 16.05V22.2125C22.9749 23.8 21.7374 25.5 20.2499 26L16.2624 27.325C15.5624 27.5625 14.4249 27.5625 13.7374 27.325L9.7499 26C8.2499 25.5 7.0249 23.8 7.0249 22.2125L7.0374 16.05L12.5624 19.65C13.9124 20.5375 16.1374 20.5375 17.4874 19.65L22.9749 16.05Z" fill="white"/>
<path d="M24.9749 8.07501L17.4874 3.16251C16.1374 2.27501 13.9124 2.27501 12.5624 3.16251L5.0374 8.07501C2.6249 9.63751 2.6249 13.175 5.0374 14.75L7.0374 16.05L12.5624 19.65C13.9124 20.5375 16.1374 20.5375 17.4874 19.65L22.9749 16.05L24.6874 14.925V18.75C24.6874 19.2625 25.1124 19.6875 25.6249 19.6875C26.1374 19.6875 26.5624 19.2625 26.5624 18.75V12.6C27.0624 10.9875 26.5499 9.11251 24.9749 8.07501Z" fill="white"/>
</svg>
